<?xml version="1.0" encoding="utf-8"?>
<!-- Generator: Adobe Illustrator 27.0.0, SVG Export Plug-In . SVG Version: 6.00 Build 0)  -->
<svg version="1.1" id="Layer_1" xmlns="http://www.w3.org/2000/svg" xmlns:xlink="http://www.w3.org/1999/xlink" x="0px" y="0px"
	 viewBox="0 0 1001.25 1000" style="enable-background:new 0 0 1001.25 1000;" xml:space="preserve">
<style type="text/css">
	.st0{display:none;opacity:0.73;}
</style>
<rect x="1001.25" y="2.65" class="st0" width="1000" height="996.51"/>
<rect x="2001.25" y="2.65" class="st0" width="1000" height="996.51"/>
<g>
	<g>
		<g>
			<g>
				<path d="M399.32,467.72H335.8l-0.6,5.59l3.95,11.63c1.68-2.19,3.61-4.15,5.72-5.87c6.35-4.99,14.06-7.94,22.67-7.94h32.93
					L399.32,467.72z M412.99,523.65l-39.69,60.65l-3.52,5.39l11.05,32.8l3.52-5.38l39.79-60.69L412.99,523.65z M412.99,523.65
					l-39.69,60.65l-3.52,5.39l11.05,32.8l3.52-5.38l39.79-60.69L412.99,523.65z M412.99,523.65l-39.69,60.65l-3.52,5.39l11.05,32.8
					l3.52-5.38l39.79-60.69L412.99,523.65z M478.46,692.23c-6-5.99-10.69-12.49-14.27-19.9h-61.35c0.61,2.64,0.84,5.29,0.84,7.92
					c0,4.32-0.96,8.63-2.88,12.95c-3.36,8.15-9.12,13.91-17.26,17.74h122.24C495.23,706.62,486.13,700.39,478.46,692.23z
					 M461.09,649.31c-1.16,1.6-2.44,3.09-3.83,4.45c-0.77,0.77-1.58,1.49-2.41,2.17c-6.35,4.98-14.06,7.93-22.68,7.93h-37.41
					l1.15,3.4h68.01l0.78-7.32L461.09,649.31z M412.99,523.65l-39.69,60.65l-3.52,5.39l11.05,32.8l3.52-5.38l39.79-60.69
					L412.99,523.65z M426.21,562.5l-39.8,60.71l11.98,35.58h33.77c7.08,0,13.85-2.37,19.55-6.85c1.34-1.08,2.57-2.29,3.7-3.6
					L426.21,562.5z M412.99,523.65l-39.69,60.65l-3.52,5.39l11.05,32.8l3.52-5.38l39.79-60.69L412.99,523.65z M412.99,523.65
					l-39.69,60.65l-3.52,5.39l11.05,32.8l3.52-5.38l39.79-60.69L412.99,523.65z M396.85,476.19h-29.3c-7.08,0-13.84,2.37-19.54,6.86
					c-2.73,2.23-5.03,4.88-6.84,7.85l27.02,79.58H196.57l93.48-230.11l41.53,122.29h60.66L333.2,289.07c0,1.44-2.88,4.79-8.63,11.02
					c-6.23,6.72-18.69,15.35-36.42,26.37l-138.55,339.9c-9.11,20.61-23.49,35.47-44.1,44.58h64.72
					c-11.51-7.19-17.26-16.3-17.26-28.28c0-3.84,0.96-7.67,2.4-11.51l38.35-93.48h177.37l0.18,0.54l39.68-60.63L396.85,476.19z"/>
			</g>
			<g>
				<path d="M461.09,649.31c2.94-4.03,5.11-8.74,6.23-13.8l-2.61,24.42l-0.78,7.32h-144.9l50.76-77.57l3.52-5.39l39.69-60.65
					l3.52-5.39l30.84-47.14h-79.82c-8.61,0-16.32,2.95-22.67,7.94c-2.12,1.72-4.04,3.69-5.72,5.87c-1.33,1.69-2.5,3.52-3.49,5.47
					c-1.45,2.79-2.56,5.82-3.26,9.06l1.52-14.18l1.29-11.97l0.6-5.59h146.49l-54.63,83.33l-3.51,5.37l-39.79,60.69l-3.52,5.38
					l-27.12,41.37h78.45c8.62,0,16.33-2.95,22.68-7.93c0.83-0.68,1.64-1.4,2.41-2.17C458.65,652.4,459.92,650.92,461.09,649.31z"/>
				<path d="M457.26,653.76c-0.77,0.77-1.58,1.49-2.41,2.17c-6.35,4.98-14.06,7.93-22.68,7.93h-78.45l27.12-41.37l3.52-5.38
					l39.79-60.69l3.51-5.37l54.63-83.33H335.8l-0.6,5.59l-1.29,11.97l-1.52,14.18c0.7-3.23,1.81-6.27,3.26-9.06
					c0.99-1.94,2.17-3.78,3.49-5.47c1.68-2.19,3.61-4.15,5.72-5.87c6.35-4.99,14.06-7.94,22.67-7.94h79.82l-30.84,47.14l-3.52,5.39
					l-39.69,60.65l-3.52,5.39l-50.76,77.57h144.9l0.78-7.32l2.61-24.42c-1.12,5.05-3.29,9.76-6.23,13.8
					C459.92,650.92,458.65,652.4,457.26,653.76z"/>
			</g>
		</g>
		<path d="M273.66,612.74c0,0-3.15,36.22-36.61,36.54c0,0,32.66-1.13,36.61,36.6c0,0,3.01-36.77,36.54-36.6
			C310.2,649.28,278.77,647.66,273.66,612.74z"/>
		<path d="M314.93,668.72c0,0-1.66,19.12-19.32,19.28c0,0,17.23-0.6,19.32,19.32c0,0,1.59-19.4,19.28-19.32
			C334.21,688,317.63,687.15,314.93,668.72z"/>
		<path d="M298.6,601.06c0,0-1,11.49-11.62,11.59c0,0,10.36-0.36,11.62,11.62c0,0,0.95-11.67,11.59-11.62
			C310.2,612.66,300.22,612.14,298.6,601.06z"/>
	</g>
	<g>
		<g>
			<path d="M466.79,626.8v-0.54l0.59-0.18c1.12-0.3,2.19-1.16,3.22-2.58c1.42-1.9,2.27-4.77,2.54-8.61V507.97
				c-0.27-3.72-1.07-6.53-2.4-8.43c-1.06-1.51-2.16-2.43-3.31-2.76l-0.63-0.18v-0.54c41.7,0,62.78,0.02,63.27,0.05
				c5.11,0.3,9.71,1.75,13.8,4.35c4.09,2.6,7.36,6.01,9.79,10.24c2.43,4.23,3.65,8.91,3.65,14.05c0,4.08-0.8,7.91-2.4,11.49
				c-1.6,3.58-3.8,6.69-6.59,9.34c-2.79,2.64-6.04,4.66-9.72,6.05c6.77,0.33,12.86,2.19,18.29,5.57c5.42,3.38,9.75,7.87,12.98,13.46
				c3.23,5.59,4.85,11.75,4.85,18.49c0,6.92-1.69,13.23-5.08,18.92c-3.38,5.7-7.92,10.24-13.62,13.62
				c-5.7,3.38-11.99,5.08-18.88,5.08L466.79,626.8z M533.37,551.56c0.42-0.18,0.83-0.41,1.22-0.68c3.08-1.99,5.59-5.34,7.52-10.04
				c1.93-4.7,2.9-10.07,2.9-16.11c0-4.14-0.47-8-1.41-11.58c-0.94-3.58-2.22-6.65-3.85-9.22c-1.75-2.45-3.55-4.06-5.39-4.85
				c-1.84-0.79-3.29-1.18-4.35-1.18h-0.14c-0.85-0.03-7.04-0.05-18.58-0.05h-16.54c-2.21,1.72-3.49,5.09-3.85,10.11v43.6H533.37z
				 M532.83,624.94c4.17-1.27,7.87-3.61,11.1-7.02c3.23-3.41,5.79-7.61,7.68-12.58c1.89-4.97,2.83-10.37,2.83-16.2
				c0-5.8-0.94-11.19-2.83-16.16c-1.89-4.97-4.45-9.16-7.68-12.58c-3.23-3.41-6.93-5.76-11.1-7.02H490.9v61.5
				c0.36,4.99,1.62,8.34,3.76,10.06H532.83z"/>
			<path d="M607.06,626.89h-30.41v-0.54l0.59-0.14c0.39-0.12,0.88-0.38,1.45-0.77c0.57-0.39,1.16-1,1.77-1.81
				c0.6-0.82,1.13-1.93,1.59-3.33c0.45-1.4,0.75-3.16,0.91-5.28V569.6c0-1.99-0.08-3.72-0.25-5.19c-0.17-1.47-0.39-2.7-0.66-3.72
				c-0.27-1.01-0.57-1.84-0.91-2.49c-0.33-0.65-0.66-1.16-1-1.52c-0.33-0.36-0.63-0.63-0.91-0.79c-0.27-0.17-0.5-0.26-0.68-0.29
				l-0.23-0.05v-0.77c1.66,0,3.2-0.05,4.62-0.14c3.08-0.21,5.68-0.58,7.8-1.11c2.11-0.53,3.83-1.13,5.14-1.79
				c1.31-0.66,2.33-1.31,3.04-1.93c0.71-0.62,1.19-1.14,1.43-1.56l0.41-0.63v67.35c0.15,2.15,0.45,3.91,0.91,5.3
				c0.45,1.39,0.98,2.5,1.59,3.33c0.6,0.83,1.19,1.44,1.77,1.84c0.57,0.39,1.06,0.65,1.45,0.77l0.59,0.14V626.89z"/>
			<path d="M606.2,678.42c-3.26,0-6.37-0.51-9.34-1.54c-2.96-1.03-5.67-2.46-8.11-4.31l7.34-5.21l0.59,1.27
				c1.18,2.42,2.74,4.44,4.67,6.07c1.54,1.27,3.16,1.9,4.85,1.9c0.66,0,1.33-0.03,1.99-0.09c2.51-0.57,4.43-2,5.76-4.28
				c1.33-2.28,2.23-5.33,2.7-9.15c0.47-3.82,0.7-8.32,0.7-13.48V569.6c0-1.96-0.09-3.68-0.27-5.14c-0.18-1.47-0.41-2.7-0.68-3.72
				c-0.27-1.01-0.57-1.84-0.91-2.49c-0.33-0.65-0.66-1.16-1-1.52c-0.33-0.36-0.63-0.63-0.91-0.79c-0.27-0.17-0.48-0.26-0.63-0.29
				l-0.27-0.05v-0.77c1.66,0,3.22-0.05,4.67-0.14c3.05-0.24,5.63-0.63,7.75-1.16c2.11-0.53,3.83-1.13,5.14-1.79
				c1.31-0.66,2.33-1.31,3.04-1.93c0.71-0.62,1.19-1.13,1.43-1.52l0.41-0.63l0.09,101.75c-0.03,2.78-0.41,5.42-1.13,7.93
				c-1.54,5.29-4.28,9.74-8.2,13.37c-2.51,2.33-5.35,4.15-8.52,5.48C613.84,677.68,610.13,678.42,606.2,678.42z"/>
			<path d="M816.72,626.75h-12.96c-3.08,0-5.71-1.08-7.89-3.24c-2.18-2.16-3.26-4.75-3.26-7.77c-0.03-0.03-0.05-0.32-0.05-0.86
				c-0.91,0.88-1.86,1.72-2.86,2.54c-7.83,6.16-16.1,9.25-24.84,9.25c-3.47-0.03-6.59-0.44-9.34-1.22
				c-7.64-2.08-13.43-6.12-17.36-12.1c-3.05-4.59-4.64-9.76-4.76-15.5c-0.03-0.3-0.05-5.14-0.05-14.5v-14.41
				c-0.03-3.54-0.36-6.36-1-8.47c-0.48-1.75-1.1-3.04-1.86-3.85c-0.54-0.6-1.06-0.95-1.54-1.04l-0.23-0.05v-0.77
				c5.62,0,10.18-0.53,13.69-1.59c3.96-1.18,6.62-2.66,7.98-4.44c0.48-0.63,0.74-0.98,0.77-1.04v-0.09v56.38
				c0.03,1.3,0.17,2.83,0.43,4.6c0.26,1.77,0.7,3.59,1.34,5.46c0.63,1.87,1.53,3.62,2.67,5.23c1.15,1.62,2.62,2.94,4.42,3.97
				c1.8,1.03,4.03,1.54,6.68,1.54c1.81-0.09,3.4-0.27,4.76-0.54c8.04-1.72,15.06-5.72,21.07-12.01v-42.74c0-3.66-0.3-6.62-0.91-8.88
				c-0.51-1.84-1.15-3.19-1.9-4.03c-0.54-0.63-1.06-1-1.54-1.09l-0.27-0.05v-0.77c1.54,0,3.08-0.05,4.62-0.14
				c5.56-0.39,9.88-1.36,12.96-2.9c2.27-1.15,3.76-2.31,4.49-3.49l0.36-0.63v65.26c0,2.54,0.22,4.63,0.66,6.28
				c0.44,1.65,0.97,2.96,1.59,3.94c0.62,0.98,1.24,1.7,1.86,2.15c0.62,0.45,1.16,0.76,1.61,0.91l0.63,0.18V626.75z"/>
			<path d="M895.76,626.75h-35.8v-0.54l0.36-0.09c0.24-0.06,0.52-0.2,0.84-0.41c0.32-0.21,0.63-0.51,0.95-0.91
				c0.32-0.39,0.55-0.92,0.7-1.59c0.12-0.42,0.18-0.92,0.18-1.5c0-0.27-0.03-0.73-0.09-1.38c-0.06-0.65-0.33-1.65-0.82-2.99
				c-0.48-1.34-1.21-2.89-2.18-4.65l-9.34-16.95l-5.44,10.02c-3.47,6.34-5.39,9.91-5.76,10.7c-0.88,2.24-1.31,4.02-1.31,5.35
				c0,0.39,0.05,0.76,0.14,1.09c0.15,0.73,0.38,1.31,0.68,1.75c0.3,0.44,0.63,0.77,0.97,1c0.35,0.23,0.66,0.37,0.93,0.43l0.36,0.14
				v0.54h-17.54v-0.54l1.13-0.27c0.75-0.15,1.75-0.51,2.99-1.06c1.24-0.56,2.6-1.43,4.08-2.61c1.27-1.03,2.55-2.37,3.85-4.03
				c0.6-0.75,1.19-1.59,1.77-2.49l12.1-21.84l-17.9-32.31c-1.72-3.05-3.48-5.48-5.28-7.3c-1.8-1.81-3.47-3.16-5.01-4.06
				c-1.54-0.89-2.79-1.47-3.76-1.74l-1.45-0.36v-0.54h35.8v0.54l-0.36,0.09c-0.24,0.09-0.52,0.23-0.84,0.43
				c-0.32,0.2-0.63,0.49-0.95,0.88c-0.32,0.39-0.55,0.92-0.7,1.59c-0.12,0.39-0.18,0.85-0.18,1.36c0,0.33,0.04,0.83,0.11,1.5
				c0.07,0.66,0.35,1.67,0.82,3.01c0.47,1.34,1.19,2.91,2.15,4.69l7.7,13.87l8.07-14.55c0.6-1.15,1.09-2.19,1.45-3.13
				c0.85-2.18,1.27-3.93,1.27-5.26c0-0.45-0.04-0.85-0.14-1.18c-0.12-0.73-0.33-1.31-0.63-1.77c-0.57-0.75-1.19-1.24-1.86-1.45
				l-0.41-0.09v-0.54h17.54v0.54l-1.13,0.23c-2.24,0.51-4.59,1.75-7.07,3.72c-2.08,1.63-3.97,3.84-5.67,6.62h-0.05l-10.33,18.72
				l19.49,35.31c1.75,3.05,3.53,5.49,5.32,7.32c1.8,1.83,3.47,3.19,5.01,4.08c1.54,0.89,2.79,1.46,3.76,1.7l1.45,0.41V626.75z"/>
			<path d="M696.61,552.97l14.19-17.07c0.04-0.05,0.07-0.11,0.1-0.17c0.02-0.04,0.05-0.08,0.07-0.13c0.05-0.12,0.08-0.25,0.08-0.39
				c0-0.14-0.03-0.27-0.08-0.39c-0.02-0.04-0.05-0.08-0.07-0.13c-0.03-0.06-0.05-0.12-0.1-0.17l-10.31-12.4
				c-0.21-0.25-0.51-0.39-0.83-0.39h-29.16c-0.32,0-0.63,0.14-0.83,0.39l-10.31,12.4c-0.04,0.05-0.07,0.11-0.1,0.17
				c-0.02,0.04-0.05,0.08-0.07,0.13c-0.05,0.12-0.08,0.25-0.08,0.39c0,0.14,0.03,0.27,0.08,0.39c0.02,0.04,0.05,0.08,0.07,0.13
				c0.03,0.06,0.05,0.12,0.1,0.17l14.18,17.07c-15.59,4.91-26.93,19.5-26.93,36.69c0,21.21,17.25,38.46,38.46,38.46
				c21.21,0,38.46-17.25,38.46-38.46C723.54,572.47,712.21,557.88,696.61,552.97z M674.88,523.89l-6.77,10.24h-5.6l8.51-10.24
				H674.88z M683.35,523.89l-5.01,10.24h-7.66l6.78-10.24H683.35z M692.2,523.89l7.21,10.24h-7.58l-5.01-10.24H692.2z
				 M699.15,523.89l8.51,10.24h-5.62l-7.21-10.24H699.15z M678.94,551.7l-8.44-15.4h7.26l3.25,15.12l0.76,3.52l0.69,3.19l-1.69-3.08
				L678.94,551.7z M699.66,536.29l-8.44,15.4l-1.84,3.36l-1.69,3.08l0.69-3.19l0.76-3.52l3.25-15.12H699.66z M690.19,536.29
				l-3.22,14.96l-0.77,3.56l-1.12,5.21l-1.12-5.21l-0.77-3.56l-3.22-14.96H690.19z M680.75,534.13l4.33-8.86l4.33,8.86H680.75z
				 M691.65,555.41l1.8-3.28l8.67-15.84h5.54l-13.33,16.04l-2.57,3.09l-0.36,0.43L691.65,555.41z M668.04,536.29l8.67,15.84
				l1.8,3.28l0.24,0.45l-0.35-0.43l-2.57-3.09l-13.33-16.04H668.04z M685.08,619.2c-15.76,0-28.58-12.82-28.58-28.58
				c0-13.2,9-24.33,21.18-27.6l6.72,8.09c0.02,0.02,0.04,0.03,0.06,0.05c0.02,0.02,0.04,0.05,0.06,0.07
				c0.05,0.04,0.11,0.08,0.17,0.11c0.01,0,0.01,0.01,0.02,0.01c0,0,0.01,0,0.01,0.01c0,0,0,0,0,0c0.03,0.01,0.06,0.03,0.09,0.03
				c0,0,0,0,0,0c0,0,0,0,0,0c0.09,0.03,0.17,0.04,0.26,0.04c0.09,0,0.19-0.02,0.28-0.05c0,0,0,0,0,0s0,0,0,0
				c0.01-0.01,0.03-0.01,0.05-0.02c0,0,0,0,0,0c0.01,0,0.01-0.01,0.02-0.01c0.02-0.01,0.04-0.03,0.06-0.04
				c0.05-0.03,0.11-0.06,0.16-0.09c0,0,0,0,0,0v0c0.02-0.02,0.03-0.05,0.05-0.07c0.01-0.02,0.04-0.02,0.05-0.04l6.72-8.09
				c12.18,3.27,21.18,14.4,21.18,27.6C713.66,606.38,700.84,619.2,685.08,619.2z"/>
		</g>
		<path d="M588.77,516.87c0,0-1.31,15.02-15.18,15.16c0,0,13.54-0.47,15.18,15.18c0,0,1.25-15.25,15.15-15.18
			C603.92,532.03,590.89,531.36,588.77,516.87z"/>
		<path d="M625.06,516.78c0,0-1.31,15.02-15.18,15.16c0,0,13.54-0.47,15.18,15.18c0,0,1.25-15.25,15.15-15.18
			C640.21,531.93,627.18,531.26,625.06,516.78z"/>
	</g>
</g>
</svg>
